HIERARCHY
ROOT Hips
{
	OFFSET 0.0000 0.0000 0.0000
	CHANNELS 6 Xposition Yposition Zposition Zrotation Xrotation Yrotation
	JOINT Ab
	{
		OFFSET -0.0000 8.0846 -0.0000
		CHANNELS 3 Zrotation Xrotation Yrotation
		JOINT Chest
		{
			OFFSET -0.0000 25.0068 -0.0000
			CHANNELS 3 Zrotation Xrotation Yrotation
			JOINT Neck
			{
				OFFSET -0.0000 25.0068 0.0000
				CHANNELS 3 Zrotation Xrotation Yrotation
				JOINT Head
				{
					OFFSET -0.0000 10.7556 0.0000
					CHANNELS 3 Zrotation Xrotation Yrotation
					End Site
					{
						OFFSET -0.0000 16.6222 0.0000
					}
				}
			}
			JOINT LeftCollar
			{
				OFFSET -0.0000 25.0068 0.0000
				CHANNELS 3 Zrotation Xrotation Yrotation
				JOINT LeftShoulder
				{
					OFFSET 19.5556 -0.0000 0.0000
					CHANNELS 3 Zrotation Xrotation Yrotation
					JOINT LeftElbow
					{
						OFFSET 27.1828 0.0000 0.0000
						CHANNELS 3 Zrotation Xrotation Yrotation
						JOINT LeftWrist
						{
							OFFSET 23.3157 0.0000 0.0000
							CHANNELS 3 Zrotation Xrotation Yrotation
							End Site
							{
								OFFSET 0.0000 -14.6667 0.0000
							}
						}
					}
				}
			}
			JOINT RightCollar
			{
				OFFSET -0.0000 25.0068 0.0000
				CHANNELS 3 Zrotation Xrotation Yrotation
				JOINT RightShoulder
				{
					OFFSET -19.5556 0.0000 0.0000
					CHANNELS 3 Zrotation Xrotation Yrotation
					JOINT RightElbow
					{
						OFFSET -27.1828 0.0000 0.0000
						CHANNELS 3 Zrotation Xrotation Yrotation
						JOINT RightWrist
						{
							OFFSET -23.3157 0.0000 0.0000
							CHANNELS 3 Zrotation Xrotation Yrotation
							End Site
							{
								OFFSET -0.0000 -14.6667 0.0000
							}
						}
					}
				}
			}
		}
	}
	JOINT LeftHip
	{
		OFFSET 11.7333 0.0000 0.0000
		CHANNELS 3 Zrotation Xrotation Yrotation
		JOINT LeftKnee
		{
			OFFSET -0.0000 -40.8688 0.0000
			CHANNELS 3 Zrotation Xrotation Yrotation
			JOINT LeftAnkle
			{
				OFFSET -0.0000 -44.4337 0.0000
				CHANNELS 3 Zrotation Xrotation Yrotation
				End Site
				{
					OFFSET -0.0000 -4.8889 16.6222
				}
			}
		}
	}
	JOINT RightHip
	{
		OFFSET -11.7333 0.0000 0.0000
		CHANNELS 3 Zrotation Xrotation Yrotation
		JOINT RightKnee
		{
			OFFSET -0.0000 -40.8688 0.0000
			CHANNELS 3 Zrotation Xrotation Yrotation
			JOINT RightAnkle
			{
				OFFSET -0.0000 -44.4337 0.0000
				CHANNELS 3 Zrotation Xrotation Yrotation
				End Site
				{
					OFFSET -0.0000 -4.8889 16.6222
				}
			}
		}
	}
}
MOTION
Frames: 19
Frame Time: 0.010000
-5.8347 88.7654 186.8072 2.6410 359.0836 175.5730 1.7253 358.9748 358.2745 358.3660 12.4472 358.4379 1.1778 356.6063 1.6705 1.2421 22.6848 1.3866 339.6362 358.5006 8.4214 301.3478 32.1241 353.7559 16.9417 354.3140 323.0705 82.5889 0.8495 343.3509 22.5390 359.3391 356.6526 59.4981 44.1968 9.0215 336.9256 354.0608 28.3923 276.7218 353.1186 16.8743 0.9299 356.9031 358.5668 359.3213 10.1463 356.7745 358.9955 352.8597 21.6510 0.0318 350.1488 0.9652 358.6729 19.5419 8.9319 358.7400 345.3238 338.0665 
-5.8436 88.7661 186.7944 2.6327 359.0893 175.5791 1.7173 359.0040 358.2661 358.3598 12.4081 358.4299 1.1836 356.6223 1.6507 1.2156 22.6968 1.3741 339.6298 358.4788 8.4594 301.3412 32.2516 353.7428 17.0339 354.2663 323.1273 82.5858 0.8267 343.4243 22.5480 359.3286 356.6451 59.5197 44.2091 8.9840 337.0106 354.0999 28.5305 276.5682 353.4755 17.3197 0.9175 356.8889 358.5389 359.3184 10.1937 356.7321 359.1089 352.7766 21.6919 0.0116 350.1658 0.9272 358.6712 19.5352 8.9384 358.7191 345.3197 338.0897 
-5.8527 88.7659 186.7878 2.6253 359.0756 175.5861 1.6938 358.9984 358.2614 358.3794 12.4152 358.4238 1.1873 356.6049 1.6416 1.2052 22.6915 1.3664 339.6282 358.4885 8.4115 301.2808 32.0572 353.8156 16.8858 354.3285 323.0671 82.6800 0.8648 343.2970 22.5390 359.3432 356.6350 59.4964 44.1998 9.0236 336.9607 354.0687 28.4031 276.6732 353.1604 16.8704 0.9046 356.8559 358.5560 359.3213 10.2353 356.6869 359.1355 352.7608 21.7162 359.9972 350.1650 0.9746 358.6850 19.5216 8.8971 358.7110 345.3058 338.0823 
-5.8629 88.7647 186.7751 2.6238 359.0705 175.5893 1.6757 359.0028 358.2606 358.3954 12.4033 358.4209 1.1691 356.6250 1.6244 1.2337 22.6688 1.3451 339.6138 358.4721 8.4329 301.2733 32.2336 353.8340 17.0297 354.2691 323.1009 82.5682 0.8513 343.4465 22.5369 359.3352 356.6340 59.5073 44.1930 9.0069 337.0171 354.1041 28.5402 276.5890 353.4731 17.2998 0.9001 356.8247 358.5149 359.3032 10.2962 356.7095 359.1112 352.7130 21.7200 359.9852 350.1772 0.9779 358.6916 19.5008 8.8749 358.6899 345.3037 338.0949 
-5.8731 88.7644 186.7611 2.6161 359.0658 175.5842 1.6385 359.0014 358.2661 358.4301 12.4045 358.4231 1.1644 356.6309 1.6052 1.2282 22.6647 1.3267 339.5898 358.4872 8.4274 301.2561 32.1833 353.8489 16.9580 354.3280 323.1312 82.6307 0.8117 343.3624 22.5328 359.3297 356.6225 59.4888 44.2041 9.0179 337.0249 354.0736 28.5408 276.5972 353.5410 17.3136 0.8896 356.8017 358.4968 359.2842 10.3456 356.7276 359.1259 352.6974 21.7491 359.9721 350.1903 1.0096 358.7008 19.4933 8.8569 358.7729 345.2662 338.0925 
-5.8842 88.7637 186.7470 2.6189 359.0685 175.5800 1.6081 359.0022 358.2741 358.4688 12.4330 358.4280 1.1470 356.5896 1.5861 1.2552 22.6844 1.3021 339.5715 358.4906 8.4251 301.2386 32.2022 353.8468 16.9713 354.2866 323.1103 82.6330 0.8581 343.3934 22.5117 359.3171 356.6172 59.5091 44.2017 9.0123 336.9995 354.0796 28.5644 276.4961 353.6560 17.3368 0.8905 356.7372 358.3921 359.2389 10.4819 356.8351 359.1854 352.6235 21.7763 359.9674 350.2091 1.0253 358.7003 19.4748 8.8493 358.7835 345.2516 338.1000 
-5.8972 88.7642 186.7317 2.6172 359.0689 175.5718 1.5943 359.0142 358.2763 358.4708 12.4272 358.4296 1.1593 356.5817 1.5716 1.2505 22.7028 1.2879 339.5767 358.4677 8.3888 301.1381 32.0359 353.9360 16.9072 354.3035 323.0452 82.6191 0.8846 343.2570 22.5147 359.3142 356.6084 59.5093 44.2067 9.0113 336.9995 354.0835 28.5394 276.6097 353.5091 17.3302 0.8875 356.7418 358.3899 359.2275 10.4999 356.8143 359.1835 352.6070 21.7863 359.9569 350.2300 1.0558 358.7055 19.4556 8.8240 358.7573 345.2618 338.1147 
-5.9098 88.7650 186.7180 2.6156 359.0658 175.5623 1.5841 359.0364 358.2813 358.4647 12.4008 358.4357 1.1662 356.5880 1.5581 1.2434 22.7121 1.2774 339.5716 358.4938 8.3803 301.0969 31.9175 353.9719 16.7785 354.3609 323.0559 82.6388 0.8740 343.1295 22.5261 359.3338 356.6163 59.5143 44.1422 8.9982 337.2141 354.1726 28.3601 276.0640 353.0235 17.8147 0.8782 356.7282 358.3751 359.2219 10.5407 356.8070 359.1832 352.5777 21.8151 359.9466 350.2332 1.0593 358.7100 19.4548 8.8010 359.7244 345.0839 338.3371 
-5.9264 88.7651 186.7054 2.6162 359.0514 175.5501 1.5835 359.0404 358.2873 358.4511 12.3885 358.4425 1.1461 356.8300 1.3782 1.2321 22.5940 1.1012 339.5832 358.4746 8.3459 301.0112 31.7778 354.0621 16.7424 354.3521 322.9530 82.6076 0.9172 343.0492 22.5343 359.3390 356.6237 59.4972 44.1585 8.9997 337.1906 354.1838 28.3376 276.1436 352.8746 17.8307 0.8738 356.7327 358.3969 359.2081 10.5180 356.8054 359.2168 352.5855 21.8317 359.9328 350.2313 1.0772 358.7146 19.4488 8.8321 358.9197 345.1969 338.1393 
-5.9459 88.7643 186.6887 2.6138 359.0491 175.5330 1.5721 359.0491 358.2903 358.4480 12.3902 358.4447 1.1361 356.8351 1.3592 1.2487 22.6162 1.0824 339.5762 358.4753 8.3572 300.9857 31.8097 354.0976 16.7338 354.3608 322.9710 82.5983 0.8672 343.0591 22.5296 359.3151 356.6354 59.5079 44.1556 8.9813 337.1717 354.1585 28.3474 276.1893 352.7806 17.8300 0.8625 356.7316 358.3870 359.1911 10.5393 356.8252 359.2355 352.5535 21.8539 359.9106 350.2433 1.0832 358.7298 19.4371 8.7981 358.8353 345.2045 338.1013 
-5.9666 88.7637 186.6794 2.6072 359.0172 175.5210 1.5554 359.0497 358.2870 358.4462 12.3595 358.4425 1.1318 356.8304 1.3524 1.2527 22.6401 1.0741 339.5705 358.4915 8.3447 300.9286 31.6827 354.1593 16.6432 354.3915 322.9207 82.6154 0.8854 342.9650 22.5532 359.3392 356.6281 59.4167 44.1681 9.0309 337.2857 354.1909 28.3377 276.0541 352.8828 17.8903 0.8452 356.6923 358.3977 359.1957 10.5689 356.8067 359.2655 352.5415 21.8573 359.8826 350.2143 1.0904 358.7433 19.4553 8.7368 359.8164 345.0108 338.4151 
-5.9903 88.7634 186.6632 2.6035 359.0072 175.5107 1.5403 359.0717 358.2910 358.4390 12.3305 358.4466 1.1527 356.8158 1.3408 1.2165 22.6949 1.0680 339.5581 358.4689 8.3719 300.8940 31.7325 354.2014 16.7123 354.3510 322.8806 82.5348 0.9089 343.0381 22.5640 359.3293 356.6429 59.4026 44.1913 9.0177 336.9740 354.0836 28.2152 276.5996 352.5069 16.7435 0.8285 356.6929 358.3975 359.1907 10.5705 356.7914 359.2837 352.5366 21.8839 359.8526 350.2171 1.0853 358.7568 19.4390 8.7264 359.1232 345.0982 338.2961 
-6.0144 88.7614 186.6423 2.6008 359.0103 175.4944 1.5198 359.0942 358.3024 358.4362 12.3166 358.4602 1.1564 356.8241 1.3294 1.2121 22.6963 1.0573 339.5488 358.4881 8.3524 300.8611 31.6609 354.2619 16.6154 354.3940 322.8458 82.5807 0.9247 343.0269 22.5634 359.3287 356.6531 59.4103 44.2170 8.9990 336.8959 354.0901 28.1707 276.7362 352.4240 16.5443 0.8156 356.7171 358.4156 359.1788 10.5647 356.7690 359.2820 352.5198 21.8999 359.8246 350.2324 1.0822 358.7718 19.4317 8.7098 359.1487 345.0045 338.2250 
-6.0392 88.7616 186.6214 2.6011 359.0124 175.4751 1.5002 359.1102 358.3161 358.4300 12.3199 358.4750 1.1681 356.8145 1.3173 1.2085 22.7219 1.0432 339.5449 358.5054 8.3264 300.8109 31.5185 354.3110 16.5371 354.4206 322.7674 82.5716 0.9322 342.9295 22.5740 359.3470 356.6580 59.3764 44.1908 9.0311 336.9253 354.1388 28.1545 276.7160 352.4160 16.5103 0.8031 356.7300 358.4328 359.1719 10.5715 356.7698 359.2935 352.5049 21.9027 359.8046 350.2485 1.0810 358.7604 19.4060 8.8209 359.4196 344.8298 338.0656 
-6.0675 88.7622 186.5978 2.5990 359.0126 175.4577 1.4559 359.1118 358.3383 358.4506 12.3488 358.4955 1.1923 356.7779 1.2989 1.1926 22.7763 1.0274 339.5340 358.4772 8.3372 300.7827 31.5508 354.3329 16.5525 354.3913 322.7285 82.5859 0.9199 342.9286 22.6334 359.3171 356.5447 59.1808 43.8001 9.1968 337.1525 354.2137 28.2886 276.8337 352.4323 16.8755 0.7853 356.7402 358.4642 359.1680 10.5850 356.7463 359.3134 352.4675 21.9124 359.7800 350.2633 1.1006 358.7434 19.3829 8.9737 359.4604 344.8431 337.9330 
-6.0969 88.7621 186.5740 2.5971 359.0054 175.4515 1.4257 359.1148 358.3396 358.4576 12.3526 358.4957 1.1847 356.7825 1.2791 1.2127 22.7914 1.0031 339.5223 358.4891 8.3590 300.7729 31.6376 354.3399 16.5530 354.3715 322.6996 82.5820 1.0118 343.0976 22.6482 359.2929 356.5318 59.1605 43.7318 9.1878 337.2110 354.2091 28.3114 276.8683 352.4380 16.9488 0.7698 356.7333 358.4653 359.1536 10.6162 356.7345 359.3520 352.4435 21.9373 359.7518 350.2747 1.1013 358.7775 19.3897 8.7985 359.4963 344.7641 338.0352 
-6.1316 88.7617 186.5491 2.5923 359.0074 175.4458 1.4154 359.1388 358.3326 358.4301 12.3368 358.4927 1.1533 356.8056 1.2744 1.2599 22.7772 0.9894 339.5135 358.4793 8.4011 300.7549 31.6951 354.3688 16.6114 354.3402 322.5767 82.5341 1.1675 343.3039 22.6715 359.3047 356.5511 59.1205 43.7422 9.1877 337.2652 354.2186 28.2827 276.8494 352.3641 16.9511 0.7472 356.7447 358.4722 359.1420 10.6269 356.7204 359.3856 352.4356 21.9415 359.7202 350.2866 1.0962 358.7798 19.3857 8.8150 359.4249 344.7518 338.1224 
-6.1675 88.7613 186.5256 2.5867 359.0008 175.4330 1.3866 359.1630 358.3272 358.4252 12.3069 358.4872 1.0918 356.8524 1.2717 1.3487 22.7389 0.9722 339.5091 358.4723 8.4581 300.7188 31.7978 354.4082 16.6458 354.3340 322.5969 82.5805 1.1186 343.3534 22.6661 359.3301 356.5672 59.0742 43.8883 9.2849 337.5829 354.3098 28.4060 276.3018 353.1442 18.4402 0.7217 356.7352 358.4605 359.1301 10.6627 356.7284 359.3777 352.3869 21.9585 359.6893 350.2874 1.1016 358.7762 19.3743 8.8827 359.3938 344.7143 338.1054 
-6.2061 88.7613 186.5058 2.5900 358.9776 175.4298 1.3368 359.1551 358.3466 358.4548 12.3221 358.5044 1.0728 356.8436 1.2526 1.3788 22.7411 0.9496 339.4928 358.4714 8.5337 300.7185 32.0022 354.3421 16.7373 354.2885 322.7093 82.5709 1.0665 343.4509 22.6463 359.3172 356.5718 59.0417 43.9511 9.3372 337.5834 354.2680 28.4656 276.3716 353.3798 18.8688 0.7017 356.7010 358.4603 359.1245 10.7069 356.7220 359.3786 352.3394 21.9728 359.6619 350.2821 1.1166 358.7712 19.3763 8.9601 359.3052 344.8218 338.0965 
